<svg width="24" height="24" viewBox="0 0 24 24" fill="none" xmlns="http://www.w3.org/2000/svg">
  <path fill-rule="evenodd" clip-rule="evenodd" d="M7 7C7 5.89543 7.89543 5 9 5H15C16.1046 5 17 5.89543 17 7V8H18C19.1046 8 20 8.89543 20 10V19C20 20.1046 19.1046 21 18 21H6C4.89543 21 4 20.1046 4 19V10C4 8.89543 4.89543 8 6 8H7V7ZM6 10H18V19H6V10ZM6 8C5.44772 8 5 8.44772 5 9V19C5 19.5523 5.44772 20 6 20H18C18.5523 20 19 19.5523 19 19V9C19 8.44772 18.5523 8 18 8H6Z" fill="#6C6C6C"/>
  <path fill-rule="evenodd" clip-rule="evenodd" d="M7 9C7 8.44772 7.44772 8 8 8H16C16.5523 8 17 8.44772 17 9C17 9.55228 16.5523 10 16 10H8C7.44772 10 7 9.55228 7 9ZM16 11C16.5523 11 17 11.4477 17 12C17 12.5523 16.5523 13 16 13H8C7.44772 13 7 12.5523 7 12C7 11.4477 7.44772 11 8 11H16Z" fill="#6C6C6C"/>
</svg>
